<svg xmlns:xlink="http://www.w3.org/1999/xlink" xmlns="http://www.w3.org/2000/svg" xml:space="preserve" style="enable-background:new 0 0 113.4 113.4;" viewBox="0 0 113.4 113.4" y="0px" x="0px" id="Layer_1" version="1.1">
<style type="text/css">
	.st0{fill:#FFDD00;stroke:#000000;stroke-width:1.4;stroke-miterlimit:10;}
	.st1{fill:none;stroke:#000000;stroke-width:2;stroke-linecap:round;stroke-linejoin:round;stroke-miterlimit:2.6131;}
	
		.st2{fill-rule:evenodd;clip-rule:evenodd;fill:#FFFFFF;stroke:#000000;stroke-width:1.8952;stroke-linecap:round;stroke-linejoin:round;stroke-miterlimit:2.6131;}
	
		.st3{fill-rule:evenodd;clip-rule:evenodd;stroke:#000000;stroke-width:1.8952;stroke-linecap:round;stroke-linejoin:round;stroke-miterlimit:2.6131;}
</style>
<g>
	<path d="M40.4,3.4c28.4-8.7,58.8,8.2,67.8,37.6c9,29.3-6.9,60.3-35.3,69c-28.4,8.7-58.9-8.2-67.8-37.5   C-3.8,43.1,12,12.1,40.4,3.4L40.4,3.4z" class="st0"/>
	<path d="M23.7,72.2c15.1,30.3,68.7,21.9,69.6-21.3" class="st1"/>
	<path d="M51.1,61.1c2.2,7.3,15.6,3.5,14.4-4.4" class="st1"/>
	<path d="M15.4,74.1c6.1,0.8,12.9-2.9,10.5-10.4" class="st1"/>
	<path d="M101.3,47.8C96.7,51.8,89,52.6,86.8,45" class="st1"/>
	<path d="M34.7,33.9c3.4-1.5,8,1.5,10.1,6.6c2.1,5.1,1.1,10.5-2.4,11.9c-3.4,1.5-8-1.5-10.1-6.6   C30.2,40.8,31.3,35.4,34.7,33.9L34.7,33.9z" class="st2"/>
	<path d="M62.2,25.2c-3.7,0.7-5.8,5.7-4.7,11.1c1.1,5.4,5,9.3,8.6,8.6c3.7-0.7,5.8-5.7,4.7-11.1   C69.8,28.3,65.9,24.5,62.2,25.2L62.2,25.2z" class="st2"/>
	<path d="M38.9,42.7c2.7-0.8,5.5,0.8,6.3,3.5c0.8,2.7-0.6,5.7-3.3,6.5c-2.7,0.8-5.5-0.8-6.3-3.5   C34.8,46.4,36.3,43.5,38.9,42.7L38.9,42.7z" class="st3"/>
	<path d="M63.6,34.8c-2.7,0.8-4.1,3.7-3.3,6.5c0.8,2.8,3.7,4.3,6.4,3.5c2.7-0.8,4.1-3.7,3.3-6.5   C69.1,35.6,66.3,34,63.6,34.8L63.6,34.8z" class="st3"/>
</g>
</svg>